<svg xmlns="http://www.w3.org/2000/svg" width="1200" height="630" viewBox="0 0 1200 630">
<defs>
<linearGradient id="ogbg" x1="0" y1="0" x2="1" y2="1"><stop offset="0" stop-color="#0f0a3a"/><stop offset=".5" stop-color="#1c1950"/><stop offset="1" stop-color="#1e1b4b"/></linearGradient>
</defs>
<rect width="1200" height="630" fill="url(#ogbg)"/>
<ellipse cx="1010" cy="520" rx="136" ry="80" fill="#818cf8" opacity="0.04"/>
<ellipse cx="1090" cy="128" rx="268" ry="203" fill="#818cf8" opacity="0.02"/>
<ellipse cx="626" cy="391" rx="111" ry="83" fill="#818cf8" opacity="0.04"/>
<ellipse cx="279" cy="236" rx="216" ry="195" fill="#818cf8" opacity="0.03"/>
<ellipse cx="901" cy="254" rx="154" ry="169" fill="#818cf8" opacity="0.04"/>
<ellipse cx="1057" cy="140" rx="162" ry="227" fill="#818cf8" opacity="0.02"/>
<circle cx="858.4" cy="493.2" r="3.5" fill="#dee3fe" opacity="0.06"/>
<circle cx="194.6" cy="203.9" r="3.1" fill="#848ff8" opacity="0.06"/>
<circle cx="293.7" cy="465.7" r="3.9" fill="#dde2fd" opacity="0.05"/>
<circle cx="1119.0" cy="159.2" r="2.8" fill="#cad0fc" opacity="0.06"/>
<circle cx="443.8" cy="388.7" r="5.1" fill="#a0a9fa" opacity="0.06"/>
<circle cx="219.8" cy="546.8" r="3.9" fill="#a3acfa" opacity="0.06"/>
<circle cx="1181.6" cy="323.2" r="3.6" fill="#a2abfa" opacity="0.06"/>
<circle cx="486.3" cy="532.1" r="5.7" fill="#c0c7fc" opacity="0.06"/>
<circle cx="941.0" cy="515.0" r="2.8" fill="#cad0fc" opacity="0.06"/>
<circle cx="1163.4" cy="227.7" r="1.0" fill="#b7befb" opacity="0.02"/>
<circle cx="1085.9" cy="314.5" r="2.4" fill="#c1c8fc" opacity="0.03"/>
<circle cx="924.1" cy="336.8" r="2.7" fill="#919bf9" opacity="0.03"/>
<rect x="0" y="0" width="685" height="630" fill="#0f0a3a" opacity="0.85" rx="4"/>
<g transform="translate(342, 315) scale(0.6)" color="#818cf8" opacity="0.8">  <rect x="4" y="4" width="16" height="16" rx="2"/><path d="M9 4v16M15 4v16M4 9h16M4 15h16"/></g>
<!-- Icon -->
<g transform="translate(50, 50) scale(1.8)" color="#818cf8">
  <path d="M3 12h5l2-3 4 6 2-3h5"/><circle cx="3" cy="12" r="2"/><circle cx="21" cy="12" r="2"/><path d="M10 6h4M10 18h4"/>
</g>
<text x="50" y="260" fill="#eef2ff" font-family="system-ui,sans-serif" font-size="36" font-weight="700">Interpretable Human-Label-Free Deep</text>
<text x="50" y="312" fill="#eef2ff" font-family="system-ui,sans-serif" font-size="36" font-weight="700">Learning for Real-Bogus Classification</text>
<text x="50" y="364" fill="#eef2ff" font-family="system-ui,sans-serif" font-size="44" font-weight="700">with Uncertainty Quantification</text>
<text x="50" y="500" fill="#818cf8" font-family="system-ui,sans-serif" font-size="18" font-weight="600">AcaciaFund &nbsp;·&nbsp; DATA-ENGINEERING</text>
<text x="50" y="540" fill="#eef2ff" font-family="system-ui,sans-serif" font-size="14" opacity="0.5">Codzienna synteza badan — AML, rynki, nauka</text>
</svg>