<svg xmlns="http://www.w3.org/2000/svg" width="600" height="340" viewBox="0 0 600 340">
<defs>
<linearGradient id="bg-649c91e5" x1="0" y1="0" x2="1" y2="1"><stop offset="0" stop-color="#0f172a"/><stop offset="0.5" stop-color="#232026"/><stop offset="1" stop-color="#1e3a5f"/></linearGradient>
<radialGradient id="glow-649c91e5" cx="76%" cy="47%"><stop offset="0" stop-color="#d97706" stop-opacity="0.11"/><stop offset="1" stop-color="#0f172a" stop-opacity="0"/></radialGradient>
</defs>
<rect width="600" height="340" fill="url(#bg-649c91e5)"/>
<rect width="600" height="340" fill="url(#glow-649c91e5)"/>
<circle cx="198.5" cy="199.6" r="2.8" fill="#e9bd8a" opacity="0.05"/>
<circle cx="520.1" cy="18.6" r="4.4" fill="#f1e0cb" opacity="0.07"/>
<circle cx="397.1" cy="244.1" r="5.4" fill="#e2a053" opacity="0.03"/>
<circle cx="349.2" cy="35.1" r="5.8" fill="#f0d8bd" opacity="0.04"/>
<circle cx="576.3" cy="337.4" r="4.6" fill="#dd8927" opacity="0.07"/>
<circle cx="109.9" cy="196.7" r="4.6" fill="#f6f3f0" opacity="0.03"/>
<circle cx="161.2" cy="189.5" r="3.0" fill="#e29d4e" opacity="0.07"/>
<circle cx="534.3" cy="285.8" r="5.8" fill="#e3a45b" opacity="0.06"/>
<circle cx="280.8" cy="14.6" r="1.3" fill="#f6f5f2" opacity="0.02"/>
<circle cx="581.4" cy="96.7" r="5.9" fill="#e5aa66" opacity="0.04"/>
<circle cx="227.8" cy="170.5" r="2.8" fill="#e3a257" opacity="0.08"/>
<circle cx="134.9" cy="150.3" r="5.9" fill="#de8c2e" opacity="0.08"/>
<circle cx="140.6" cy="112.8" r="2.2" fill="#e8b77f" opacity="0.06"/>
<circle cx="432.2" cy="116.3" r="2.1" fill="#e9ba85" opacity="0.05"/>
<circle cx="189.1" cy="97.5" r="3.3" fill="#e4a862" opacity="0.03"/>
<circle cx="321.0" cy="142.0" r="5.8" fill="#ebc599" opacity="0.05"/>
<circle cx="348.1" cy="164.7" r="5.2" fill="#ebc599" opacity="0.08"/>
<circle cx="463.3" cy="234.4" r="4.2" fill="#e8b983" opacity="0.07"/>
<circle cx="225.6" cy="95.6" r="2.5" fill="#d47507" opacity="0.49"/>
<circle cx="246.9" cy="95.6" r="2.2" fill="#bd6d13" opacity="0.45"/>
<circle cx="246.9" cy="116.9" r="1.1" fill="#534b45" opacity="0.25"/>
<circle cx="225.6" cy="116.9" r="1.1" fill="#564c44" opacity="0.26"/>
<circle cx="225.6" cy="138.1" r="0.9" fill="#44464c" opacity="0.22"/>
<circle cx="225.6" cy="159.4" r="1.0" fill="#4f4a47" opacity="0.24"/>
<circle cx="246.9" cy="159.4" r="1.3" fill="#6d5339" opacity="0.30"/>
<circle cx="246.9" cy="138.1" r="2.3" fill="#c37010" opacity="0.46"/>
<circle cx="268.1" cy="138.1" r="1.5" fill="#7c5831" opacity="0.33"/>
<circle cx="268.1" cy="159.4" r="1.8" fill="#966125" opacity="0.38"/>
<circle cx="289.4" cy="159.4" r="0.8" fill="#384252" opacity="0.20"/>
<circle cx="289.4" cy="138.1" r="1.5" fill="#765734" opacity="0.32"/>
<circle cx="289.4" cy="116.9" r="0.8" fill="#3e444f" opacity="0.21"/>
<circle cx="268.1" cy="116.9" r="1.8" fill="#976125" opacity="0.38"/>
<circle cx="268.1" cy="95.6" r="1.3" fill="#68523b" opacity="0.29"/>
<circle cx="289.4" cy="95.6" r="1.0" fill="#4e4948" opacity="0.24"/>
<circle cx="310.6" cy="95.6" r="1.4" fill="#705437" opacity="0.30"/>
<circle cx="310.6" cy="116.9" r="0.9" fill="#45464c" opacity="0.22"/>
<circle cx="331.9" cy="116.9" r="1.1" fill="#564c43" opacity="0.26"/>
<circle cx="331.9" cy="95.6" r="1.3" fill="#64503d" opacity="0.28"/>
<circle cx="353.1" cy="95.6" r="0.9" fill="#3f444f" opacity="0.21"/>
<circle cx="374.4" cy="95.6" r="2.4" fill="#d17409" opacity="0.49"/>
<circle cx="374.4" cy="116.9" r="2.3" fill="#c7710e" opacity="0.47"/>
<circle cx="353.1" cy="116.9" r="1.4" fill="#6d5439" opacity="0.30"/>
<circle cx="353.1" cy="138.1" r="0.9" fill="#41454d" opacity="0.22"/>
<circle cx="374.4" cy="138.1" r="0.8" fill="#374252" opacity="0.20"/>
<circle cx="374.4" cy="159.4" r="1.5" fill="#795733" opacity="0.32"/>
<circle cx="353.1" cy="159.4" r="0.7" fill="#2e3f57" opacity="0.18"/>
<circle cx="331.9" cy="159.4" r="1.8" fill="#956026" opacity="0.37"/>
<circle cx="331.9" cy="138.1" r="1.9" fill="#9f6421" opacity="0.39"/>
<circle cx="310.6" cy="138.1" r="1.9" fill="#a3651f" opacity="0.40"/>
<circle cx="310.6" cy="159.4" r="1.3" fill="#6a523a" opacity="0.29"/>
<circle cx="310.6" cy="180.6" r="1.5" fill="#7b5832" opacity="0.33"/>
<circle cx="310.6" cy="201.9" r="1.0" fill="#4c4949" opacity="0.24"/>
<circle cx="331.9" cy="201.9" r="1.6" fill="#815a2f" opacity="0.34"/>
<circle cx="331.9" cy="180.6" r="1.9" fill="#a16420" opacity="0.40"/>
<circle cx="353.1" cy="180.6" r="2.2" fill="#b96c15" opacity="0.44"/>
<circle cx="374.4" cy="180.6" r="0.9" fill="#40454e" opacity="0.21"/>
<circle cx="374.4" cy="201.9" r="1.9" fill="#a2651f" opacity="0.40"/>
<circle cx="353.1" cy="201.9" r="2.4" fill="#cd730b" opacity="0.48"/>
<circle cx="353.1" cy="223.1" r="2.2" fill="#c16f11" opacity="0.46"/>
<circle cx="374.4" cy="223.1" r="0.7" fill="#324055" opacity="0.19"/>
<circle cx="374.4" cy="244.4" r="1.9" fill="#9e6421" opacity="0.39"/>
<circle cx="353.1" cy="244.4" r="0.8" fill="#364253" opacity="0.20"/>
<circle cx="331.9" cy="244.4" r="1.1" fill="#564c43" opacity="0.26"/>
<circle cx="331.9" cy="223.1" r="2.4" fill="#d27408" opacity="0.49"/>
<circle cx="310.6" cy="223.1" r="1.0" fill="#4c4949" opacity="0.24"/>
<circle cx="310.6" cy="244.4" r="0.6" fill="#2b3e58" opacity="0.17"/>
<circle cx="289.4" cy="244.4" r="2.2" fill="#bd6d13" opacity="0.45"/>
<circle cx="268.1" cy="244.4" r="1.8" fill="#946026" opacity="0.37"/>
<circle cx="268.1" cy="223.1" r="1.8" fill="#9a6223" opacity="0.38"/>
<circle cx="289.4" cy="223.1" r="2.3" fill="#c16f10" opacity="0.46"/>
<circle cx="289.4" cy="201.9" r="1.9" fill="#a06420" opacity="0.39"/>
<circle cx="289.4" cy="180.6" r="0.8" fill="#354153" opacity="0.19"/>
<circle cx="268.1" cy="180.6" r="2.4" fill="#d37508" opacity="0.49"/>
<circle cx="268.1" cy="201.9" r="0.9" fill="#44464c" opacity="0.22"/>
<circle cx="246.9" cy="201.9" r="1.2" fill="#62503e" opacity="0.28"/>
<circle cx="246.9" cy="180.6" r="2.1" fill="#b66b16" opacity="0.43"/>
<circle cx="225.6" cy="180.6" r="0.8" fill="#374252" opacity="0.20"/>
<circle cx="225.6" cy="201.9" r="2.1" fill="#b56b16" opacity="0.43"/>
<circle cx="225.6" cy="223.1" r="1.5" fill="#775734" opacity="0.32"/>
<circle cx="246.9" cy="223.1" r="2.3" fill="#c8710d" opacity="0.47"/>
<circle cx="246.9" cy="244.4" r="1.2" fill="#63503e" opacity="0.28"/>
<circle cx="225.6" cy="244.4" r="0.6" fill="#253c5b" opacity="0.16"/>
<circle cx="92.7" cy="209.3" r="2.8" fill="#ebc69a" opacity="0.05"/>
<circle cx="143.7" cy="87.1" r="1.1" fill="#df9137" opacity="0.07"/>
<circle cx="186.9" cy="114.9" r="1.3" fill="#f7f6f4" opacity="0.01"/>
<circle cx="465.3" cy="248.3" r="4.4" fill="#e19c4d" opacity="0.02"/>
<circle cx="217.2" cy="198.7" r="2.1" fill="#e19b4a" opacity="0.01"/>
<circle cx="280.6" cy="57.5" r="4.1" fill="#dd8928" opacity="0.08"/>
<circle cx="168.3" cy="224.0" r="5.5" fill="#f6f2ee" opacity="0.08"/>
<circle cx="10.5" cy="18.4" r="1.7" fill="#f7f9fa" opacity="0.01"/>
<circle cx="124.0" cy="262.5" r="2.4" fill="#ebc79c" opacity="0.08"/>
<g transform="translate(30, 290) scale(0.51)" stroke="#d97706" fill="none" stroke-linecap="round" stroke-linejoin="round" stroke-width="1.5" opacity="0.35">
  <path d="M12 2L2 7l10 5 10-5-10-5zM2 17l10 5 10-5M2 12l10 5 10-5"/>
</g>
<text x="536" y="310" fill="#d97706" font-family="system-ui,sans-serif" font-size="11" font-weight="600" opacity="0.16">Knowledge</text>
<text x="504" y="328" fill="#d97706" font-family="system-ui,sans-serif" font-size="11" font-weight="600" opacity="0.20">Check</text>
<rect x="210" y="330" width="180" height="2" rx="1" fill="#f8fafc" opacity="0.06"/>
<rect x="210" y="330" width="90" height="2" rx="1" fill="#d97706" opacity="0.4"/>
<text x="396" y="340" fill="#d97706" font-family="system-ui,sans-serif" font-size="8" font-weight="600" opacity="0.25">AML</text>
</svg>