<svg xmlns="http://www.w3.org/2000/svg" width="600" height="340" viewBox="0 0 600 340">
<defs>
<linearGradient id="bg-1d75a994" x1="0" y1="1" x2="1" y2="0"><stop offset="0" stop-color="#0f0a3a"/><stop offset="0.4" stop-color="#1b184f"/><stop offset="0.7" stop-color="#23215c"/><stop offset="1" stop-color="#1e1b4b"/></linearGradient>
<radialGradient id="glow-1d75a994" cx="37%" cy="76%"><stop offset="0" stop-color="#818cf8" stop-opacity="0.14"/><stop offset="1" stop-color="#0f0a3a" stop-opacity="0"/></radialGradient>
</defs>
<rect width="600" height="340" fill="url(#bg-1d75a994)"/>
<rect width="600" height="340" fill="url(#glow-1d75a994)"/>
<circle cx="161.7" cy="77.5" r="4.5" fill="#a2abfa" opacity="0.06"/>
<circle cx="237.0" cy="292.6" r="4.1" fill="#d6dcfd" opacity="0.05"/>
<circle cx="196.0" cy="60.2" r="1.8" fill="#eaeffe" opacity="0.01"/>
<circle cx="567.4" cy="272.2" r="2.9" fill="#cdd3fc" opacity="0.04"/>
<circle cx="457.4" cy="279.6" r="3.7" fill="#d6dbfd" opacity="0.03"/>
<circle cx="305.5" cy="274.3" r="1.3" fill="#99a3f9" opacity="0.05"/>
<circle cx="70.3" cy="261.7" r="5.5" fill="#8590f8" opacity="0.07"/>
<circle cx="476.2" cy="176.5" r="1.4" fill="#dadffd" opacity="0.04"/>
<circle cx="49.6" cy="131.5" r="2.9" fill="#a1aafa" opacity="0.02"/>
<circle cx="225.6" cy="95.6" r="2.1" fill="#6c74d4" opacity="0.43"/>
<circle cx="246.9" cy="95.6" r="0.9" fill="#32326e" opacity="0.22"/>
<circle cx="246.9" cy="116.9" r="2.1" fill="#6f77d8" opacity="0.44"/>
<circle cx="225.6" cy="116.9" r="0.9" fill="#31316c" opacity="0.22"/>
<circle cx="225.6" cy="138.1" r="1.0" fill="#373877" opacity="0.24"/>
<circle cx="225.6" cy="159.4" r="1.5" fill="#4e529f" opacity="0.32"/>
<circle cx="246.9" cy="159.4" r="1.5" fill="#4f53a1" opacity="0.32"/>
<circle cx="246.9" cy="138.1" r="1.1" fill="#3a3b7c" opacity="0.25"/>
<circle cx="268.1" cy="138.1" r="1.9" fill="#646bc5" opacity="0.40"/>
<circle cx="268.1" cy="159.4" r="1.2" fill="#3f4085" opacity="0.27"/>
<circle cx="289.4" cy="159.4" r="1.9" fill="#6168c1" opacity="0.39"/>
<circle cx="289.4" cy="138.1" r="2.3" fill="#7983ea" opacity="0.47"/>
<circle cx="289.4" cy="116.9" r="2.3" fill="#7881e8" opacity="0.47"/>
<circle cx="268.1" cy="116.9" r="0.9" fill="#32316d" opacity="0.22"/>
<circle cx="268.1" cy="95.6" r="1.5" fill="#5054a2" opacity="0.33"/>
<circle cx="289.4" cy="95.6" r="0.7" fill="#28275e" opacity="0.19"/>
<circle cx="310.6" cy="95.6" r="1.5" fill="#4f53a1" opacity="0.33"/>
<circle cx="310.6" cy="116.9" r="1.0" fill="#383979" opacity="0.24"/>
<circle cx="331.9" cy="116.9" r="0.7" fill="#2a2960" opacity="0.19"/>
<circle cx="331.9" cy="95.6" r="1.6" fill="#565bad" opacity="0.35"/>
<circle cx="353.1" cy="95.6" r="0.9" fill="#2f2e69" opacity="0.21"/>
<circle cx="374.4" cy="95.6" r="2.1" fill="#6f77d8" opacity="0.44"/>
<circle cx="374.4" cy="116.9" r="1.9" fill="#6167c0" opacity="0.39"/>
<circle cx="353.1" cy="116.9" r="1.5" fill="#4f53a2" opacity="0.33"/>
<circle cx="353.1" cy="138.1" r="2.2" fill="#727bde" opacity="0.45"/>
<circle cx="374.4" cy="138.1" r="2.1" fill="#6d75d6" opacity="0.43"/>
<circle cx="374.4" cy="159.4" r="0.9" fill="#32326e" opacity="0.22"/>
<circle cx="353.1" cy="159.4" r="1.2" fill="#3e3f83" opacity="0.26"/>
<circle cx="331.9" cy="159.4" r="1.5" fill="#4e529f" opacity="0.32"/>
<circle cx="331.9" cy="138.1" r="2.2" fill="#717add" opacity="0.45"/>
<circle cx="310.6" cy="138.1" r="2.3" fill="#767fe5" opacity="0.46"/>
<circle cx="310.6" cy="159.4" r="0.6" fill="#201e50" opacity="0.16"/>
<circle cx="310.6" cy="180.6" r="1.3" fill="#45478f" opacity="0.29"/>
<circle cx="310.6" cy="201.9" r="0.8" fill="#2c2a63" opacity="0.20"/>
<circle cx="331.9" cy="201.9" r="1.6" fill="#555aab" opacity="0.35"/>
<circle cx="331.9" cy="180.6" r="2.3" fill="#7680e6" opacity="0.46"/>
<circle cx="353.1" cy="180.6" r="1.0" fill="#343472" opacity="0.23"/>
<circle cx="374.4" cy="180.6" r="0.9" fill="#2f2f69" opacity="0.21"/>
<circle cx="374.4" cy="201.9" r="1.7" fill="#595eb2" opacity="0.36"/>
<circle cx="353.1" cy="201.9" r="2.4" fill="#7c86f0" opacity="0.48"/>
<circle cx="353.1" cy="223.1" r="1.3" fill="#464891" opacity="0.29"/>
<circle cx="374.4" cy="223.1" r="1.6" fill="#5458a9" opacity="0.34"/>
<circle cx="374.4" cy="244.4" r="2.2" fill="#6f78da" opacity="0.44"/>
<circle cx="353.1" cy="244.4" r="2.0" fill="#6971cf" opacity="0.42"/>
<circle cx="331.9" cy="244.4" r="0.9" fill="#302f6a" opacity="0.21"/>
<circle cx="331.9" cy="223.1" r="1.1" fill="#3a3b7d" opacity="0.25"/>
<circle cx="310.6" cy="223.1" r="0.7" fill="#27255b" opacity="0.18"/>
<circle cx="310.6" cy="244.4" r="1.9" fill="#656cc7" opacity="0.40"/>
<circle cx="289.4" cy="244.4" r="1.0" fill="#343472" opacity="0.23"/>
<circle cx="268.1" cy="244.4" r="1.9" fill="#6167c0" opacity="0.39"/>
<circle cx="268.1" cy="223.1" r="2.1" fill="#6e76d7" opacity="0.43"/>
<circle cx="289.4" cy="223.1" r="1.9" fill="#6269c2" opacity="0.39"/>
<circle cx="289.4" cy="201.9" r="2.2" fill="#747de2" opacity="0.46"/>
<circle cx="289.4" cy="180.6" r="1.8" fill="#5d63b9" opacity="0.37"/>
<circle cx="268.1" cy="180.6" r="1.8" fill="#6066be" opacity="0.38"/>
<circle cx="268.1" cy="201.9" r="1.8" fill="#5c61b7" opacity="0.37"/>
<circle cx="246.9" cy="201.9" r="0.6" fill="#211e51" opacity="0.16"/>
<circle cx="246.9" cy="180.6" r="2.2" fill="#727bdf" opacity="0.45"/>
<circle cx="225.6" cy="180.6" r="1.4" fill="#494c96" opacity="0.30"/>
<circle cx="225.6" cy="201.9" r="1.5" fill="#5054a3" opacity="0.33"/>
<circle cx="225.6" cy="223.1" r="2.2" fill="#717adc" opacity="0.44"/>
<circle cx="246.9" cy="223.1" r="2.3" fill="#7781e8" opacity="0.47"/>
<circle cx="246.9" cy="244.4" r="1.5" fill="#5054a2" opacity="0.33"/>
<circle cx="225.6" cy="244.4" r="2.3" fill="#767fe5" opacity="0.46"/>
<circle cx="310.4" cy="166.7" r="4.6" fill="#e7ebfe" opacity="0.07"/>
<circle cx="59.9" cy="60.7" r="5.6" fill="#b8bffb" opacity="0.07"/>
<circle cx="283.5" cy="172.1" r="2.8" fill="#b0b8fb" opacity="0.08"/>
<circle cx="3.0" cy="281.0" r="2.4" fill="#c4cbfc" opacity="0.03"/>
<rect x="0" y="0" width="342" height="340" fill="#0f0a3a" opacity="0.85" rx="4"/>
<g transform="translate(171, 170) scale(0.6)" color="#818cf8" opacity="0.8">  <rect x="4" y="4" width="16" height="16" rx="2"/><path d="M9 4v16M15 4v16M4 9h16M4 15h16"/></g>
<g transform="translate(374, 292) scale(0.84)" color="#818cf8" opacity="0.8">
  <path d="M3 12h5l2-3 4 6 2-3h5"/><circle cx="3" cy="12" r="2"/><circle cx="21" cy="12" r="2"/><path d="M10 6h4M10 18h4"/>
</g>
<text x="525" y="310" fill="#818cf8" font-family="system-ui,sans-serif" font-size="11" font-weight="600" opacity="0.27">Adaptive</text>
<text x="495" y="328" fill="#818cf8" font-family="system-ui,sans-serif" font-size="11" font-weight="600" opacity="0.29">Inference</text>
<text x="396" y="340" fill="#818cf8" font-family="system-ui,sans-serif" font-size="8" font-weight="600" opacity="0.25">DATA-ENGINEERING</text>
</svg>