<svg xmlns="http://www.w3.org/2000/svg" width="600" height="340" viewBox="0 0 600 340">
<defs>
<linearGradient id="bg-24a3d5a1" x1="0" y1="1" x2="1" y2="0"><stop offset="0" stop-color="#020617"/><stop offset="0.4" stop-color="#261914"/><stop offset="0.7" stop-color="#281a13"/><stop offset="1" stop-color="#0f172a"/></linearGradient>
<clipPath id="clip-research-0-0">  <rect x="0" y="0" width="342" height="340" rx="4"/></clipPath>
<linearGradient id="shadow-research" x1="0" y1="0" x2="1" y2="0"><stop offset="0" stop-color="#020617" stop-opacity="0"/><stop offset="1" stop-color="#020617" stop-opacity="0.7"/></linearGradient>
<radialGradient id="glow-24a3d5a1" cx="71%" cy="20%"><stop offset="0" stop-color="#d97706" stop-opacity="0.13"/><stop offset="1" stop-color="#020617" stop-opacity="0"/></radialGradient>
</defs>
<rect width="600" height="340" fill="url(#bg-24a3d5a1)"/>
<rect width="600" height="340" fill="url(#glow-24a3d5a1)"/>
<circle cx="106.0" cy="240.4" r="5.5" fill="#e4a760" opacity="0.04"/>
<circle cx="322.7" cy="13.6" r="5.3" fill="#e09844" opacity="0.04"/>
<circle cx="109.6" cy="282.4" r="3.0" fill="#f6f1ec" opacity="0.08"/>
<circle cx="187.5" cy="218.0" r="5.7" fill="#db8119" opacity="0.01"/>
<circle cx="176.8" cy="51.9" r="2.7" fill="#d97706" opacity="0.03"/>
<circle cx="364.1" cy="116.8" r="2.7" fill="#efd4b6" opacity="0.05"/>
<circle cx="221.5" cy="66.9" r="5.1" fill="#dc8622" opacity="0.04"/>
<circle cx="42.3" cy="301.7" r="1.6" fill="#e09742" opacity="0.05"/>
<line x1="151.0" y1="99.9" x2="58.5" y2="104.5" stroke="#945612" stroke-width="1.8" opacity="0.37" stroke-linecap="round"/>
<line x1="53.9" y1="12.0" x2="58.5" y2="104.5" stroke="#5d3c1b" stroke-width="1.3" opacity="0.26" stroke-linecap="round"/>
<line x1="141.8" y1="-85.0" x2="49.4" y2="-80.5" stroke="#915412" stroke-width="1.8" opacity="0.36" stroke-linecap="round"/>
<line x1="53.9" y1="12.0" x2="49.4" y2="-80.5" stroke="#905412" stroke-width="1.8" opacity="0.36" stroke-linecap="round"/>
<line x1="326.8" y1="-94.2" x2="234.3" y2="-89.6" stroke="#7f4c15" stroke-width="1.6" opacity="0.32" stroke-linecap="round"/>
<line x1="229.7" y1="-182.1" x2="234.3" y2="-89.6" stroke="#121829" stroke-width="0.5" opacity="0.11" stroke-linecap="round"/>
<line x1="141.8" y1="-85.0" x2="234.3" y2="-89.6" stroke="#8c5213" stroke-width="1.7" opacity="0.35" stroke-linecap="round"/>
<line x1="229.7" y1="-182.1" x2="234.3" y2="-89.6" stroke="#704518" stroke-width="1.5" opacity="0.29" stroke-linecap="round"/>
<line x1="520.8" y1="81.6" x2="428.4" y2="86.2" stroke="#362922" stroke-width="0.9" opacity="0.18" stroke-linecap="round"/>
<line x1="423.8" y1="-6.3" x2="428.4" y2="86.2" stroke="#4d341e" stroke-width="1.1" opacity="0.22" stroke-linecap="round"/>
<line x1="511.7" y1="-103.3" x2="419.2" y2="-98.7" stroke="#754717" stroke-width="1.5" opacity="0.30" stroke-linecap="round"/>
<line x1="423.8" y1="-6.3" x2="419.2" y2="-98.7" stroke="#242126" stroke-width="0.7" opacity="0.14" stroke-linecap="round"/>
<line x1="326.8" y1="-94.2" x2="419.2" y2="-98.7" stroke="#55381d" stroke-width="1.2" opacity="0.24" stroke-linecap="round"/>
<line x1="423.8" y1="-6.3" x2="419.2" y2="-98.7" stroke="#694119" stroke-width="1.4" opacity="0.28" stroke-linecap="round"/>
<line x1="511.7" y1="-103.3" x2="419.2" y2="-98.7" stroke="#272225" stroke-width="0.7" opacity="0.15" stroke-linecap="round"/>
<line x1="423.8" y1="-6.3" x2="419.2" y2="-98.7" stroke="#48321f" stroke-width="1.1" opacity="0.21" stroke-linecap="round"/>
<circle cx="328.9" cy="149.6" r="5.0" fill="#da7b0e" opacity="0.03"/>
<circle cx="536.4" cy="129.7" r="2.9" fill="#ecc89f" opacity="0.01"/>
<circle cx="419.2" cy="255.6" r="1.8" fill="#f0dac0" opacity="0.04"/>
<circle cx="114.9" cy="58.2" r="2.8" fill="#df9238" opacity="0.05"/>
<circle cx="193.4" cy="188.2" r="3.6" fill="#de8f33" opacity="0.03"/>
<rect x="0" y="0" width="342" height="340" fill="#020617" rx="4" opacity="0.3"/>
<image href="https://www.acaciafund.org/static/images/generated/blog/2026-01-15-aml.svg" x="0" y="0" width="342" height="340" preserveAspectRatio="xMidYMid slice" clip-path="url(#clip-research-0-0)"/>
<rect x="0" y="0" width="342" height="340" rx="4" fill="none" stroke="#d97706" stroke-width="1.5" opacity="0.35"/>
<rect x="318" y="0" width="24" height="340" fill="url(#shadow-research)"/>
<g transform="translate(361, 293) scale(0.82)" color="#d97706" opacity="0.8">
  <path d="M12 2L2 7l10 5 10-5-10-5zM2 17l10 5 10-5M2 12l10 5 10-5"/>
</g>
<text x="496" y="310" fill="#d97706" font-family="system-ui,sans-serif" font-size="11" font-weight="600" opacity="0.20">Directive</text>
<text x="396" y="340" fill="#d97706" font-family="system-ui,sans-serif" font-size="8" font-weight="600" opacity="0.25">AML</text>
</svg>